<?xml version="1.0" encoding="UTF-8"?>
<svg xmlns="http://www.w3.org/2000/svg" version="1.1" viewBox="0 0 182 182">
  <defs>
    <style>
      .cls-1 {
        fill: none;
        stroke: #797979;
        stroke-width: 7px;
      }

      .cls-2 {
        fill: #6f6f6f;
      }

      .cls-3 {
        fill: #f4d8b7;
        stroke: #000;
      }
    </style>
  </defs>
  <!-- Generator: Adobe Illustrator 28.6.0, SVG Export Plug-In . SVG Version: 1.2.0 Build 709)  -->
  <g>
    <g id="Layer_1">
      <rect class="cls-3" x=".5" y=".5" width="180.5" height="180.5"/>
      <rect class="cls-1" x="3.5" y="3.5" width="174.5" height="174.5"/>
      <path class="cls-2" d="M48.5,124.1h-26V53.6h26c7.2,0,13.4,1.4,18.5,4.2,5.2,2.8,9.2,6.8,12,12.1,2.8,5.2,4.2,11.5,4.2,18.8s-1.4,13.6-4.2,18.9c-2.8,5.3-6.8,9.3-12,12.1-5.2,2.8-11.4,4.2-18.5,4.2ZM39.5,109.5h8.4c3.9,0,7.3-.7,10-2,2.8-1.4,4.8-3.5,6.2-6.6,1.4-3,2.1-7.1,2.1-12.2s-.7-9.1-2.1-12.1c-1.4-3-3.5-5.2-6.3-6.5-2.8-1.4-6.1-2-10.2-2h-8.1v41.4ZM93.2,124.1V53.6h17v28.3h27.7v-28.3h17v70.4h-17v-28.3h-27.7v28.3h-17Z"/>
    </g>
  </g>
</svg>